<svg xmlns="http://www.w3.org/2000/svg" width="68" height="67" viewBox="0 0 68 67">
  <g id="btn-bg-light" transform="translate(-3520 -1286)">
    <path id="Path_639" data-name="Path 639" d="M34,0C52.778,0,68,15,68,33.5S52.778,67,34,67,0,52,0,33.5,15.222,0,34,0Z" transform="translate(3520 1286)" fill="#fff" opacity="0.7"/>
    <path id="Path_640" data-name="Path 640" d="M34,3a31.149,31.149,0,0,0-21.936,8.949,30.38,30.38,0,0,0-6.635,9.695,30.155,30.155,0,0,0,0,23.713,30.38,30.38,0,0,0,6.635,9.695A31.433,31.433,0,0,0,46.08,61.6a30.933,30.933,0,0,0,9.856-6.547,30.38,30.38,0,0,0,6.635-9.695,30.155,30.155,0,0,0,0-23.713,30.38,30.38,0,0,0-6.635-9.695A31.149,31.149,0,0,0,34,3m0-3C52.778,0,68,15,68,33.5S52.778,67,34,67,0,52,0,33.5,15.222,0,34,0Z" transform="translate(3520 1286)" fill="#fff" opacity="0.7"/>
  </g>
</svg>
