<svg xmlns="http://www.w3.org/2000/svg" xmlns:xlink="http://www.w3.org/1999/xlink" width="68" height="68" viewBox="0 0 68 68">
  <defs>
    <linearGradient id="linear-gradient" x1="0.177" y1="0.138" x2="0.902" y2="0.846" gradientUnits="objectBoundingBox">
      <stop offset="0" stop-color="#6ccccf"/>
      <stop offset="1" stop-color="#fff"/>
    </linearGradient>
  </defs>
  <g id="btn-bg-dark" transform="translate(-3489 -1169)">
    <path id="Path_637" data-name="Path 637" d="M34,0C52.778,0,68,15,68,33.5S52.778,67,34,67,0,52,0,33.5,15.222,0,34,0Z" transform="translate(3489 1169)" fill="#34404a"/>
    <path id="Path_638" data-name="Path 638" d="M34,68A34.009,34.009,0,0,1,20.765,2.672,34.009,34.009,0,0,1,47.234,65.328,33.787,33.787,0,0,1,34,68ZM34,2.893A31.107,31.107,0,1,0,65.107,34,31.142,31.142,0,0,0,34,2.893Z" transform="translate(3489 1169)" fill="url(#linear-gradient)"/>
  </g>
</svg>
