<svg id="icon-route" xmlns="http://www.w3.org/2000/svg" xmlns:xlink="http://www.w3.org/1999/xlink" width="20" height="20" viewBox="0 0 20 20">
  <defs>
    <clipPath id="clip-path">
      <rect id="Rectangle_246" data-name="Rectangle 246" width="17.595" height="14.979" fill="#59e6eb"/>
    </clipPath>
  </defs>
  <rect id="Rectangle_247" data-name="Rectangle 247" width="20" height="20" fill="none"/>
  <g id="Group_268" data-name="Group 268" transform="translate(1.203 1.793)">
    <g id="Group_267" data-name="Group 267" clip-path="url(#clip-path)">
      <path id="Path_610" data-name="Path 610" d="M24.234,45.16a3.264,3.264,0,0,0-.05-.606,2.377,2.377,0,0,0-.194-.6,2.192,2.192,0,0,0-.3-.465,2.4,2.4,0,0,0-.74-.579,3.478,3.478,0,0,0-.955-.312v-.03H11.775a7.38,7.38,0,0,1-1.132-.076,3.125,3.125,0,0,1-.63-.159,1.463,1.463,0,0,1-.31-.159.705.705,0,0,1-.239-.263.994.994,0,0,1-.092-.46,1.02,1.02,0,0,1,.075-.419.638.638,0,0,1,.153-.211,1.068,1.068,0,0,1,.239-.164,2.569,2.569,0,0,1,.712-.226,6.716,6.716,0,0,1,1.223-.1h6.81l-1.054-1.689H11.775A7.847,7.847,0,0,0,10,38.823a3.907,3.907,0,0,0-1.015.378,2.684,2.684,0,0,0-.594.443,2.33,2.33,0,0,0-.553.874,2.775,2.775,0,0,0-.152.935,2.9,2.9,0,0,0,.095.754,2.373,2.373,0,0,0,.977,1.368,3.763,3.763,0,0,0,1.425.554,8.522,8.522,0,0,0,1.594.131h9.912a1.649,1.649,0,0,1,.548.188.635.635,0,0,1,.173.147.567.567,0,0,1,.108.238,1.5,1.5,0,0,1,.028.328c0,.021,0,.044,0,.07v0h0a.822.822,0,0,1-.089.38.921.921,0,0,1-.193.252,1.59,1.59,0,0,1-.595.334,3.322,3.322,0,0,1-1.048.15H10.631v1.689H20.62a5.127,5.127,0,0,0,1.423-.187,3.637,3.637,0,0,0,.888-.384,2.77,2.77,0,0,0,.958-.957,2.513,2.513,0,0,0,.344-1.278v0c0-.021,0-.048,0-.079" transform="translate(-6.639 -33.393)" fill="#59e6eb"/>
      <path id="Path_611" data-name="Path 611" d="M3.066,89.157a1.533,1.533,0,1,1-1.533-1.533,1.533,1.533,0,0,1,1.533,1.533" transform="translate(0 -75.711)" fill="#59e6eb" fill-rule="evenodd"/>
      <path id="Path_612" data-name="Path 612" d="M86.509,0a2.977,2.977,0,0,0-2.977,2.977c0,2.842,2.977,5.032,2.977,5.032s2.977-2.19,2.977-5.032A2.977,2.977,0,0,0,86.509,0m0,4.62a1.607,1.607,0,1,1,1.607-1.607A1.607,1.607,0,0,1,86.509,4.62" transform="translate(-72.175 0)" fill="#59e6eb"/>
    </g>
  </g>
</svg>
