<svg xmlns="http://www.w3.org/2000/svg" width="44" height="44" viewBox="0 0 44 44">
  <g id="icon-ruler" transform="translate(-3857 -1168)">
    <path id="icon" d="M0,6.986V26.944H3.3V25.332H5.375V23.643H3.3V21.955H5.375V20.266H1.689V18.577H5.375V16.888H3.3V15.2H5.375V13.511H3.3V11.822H5.375V10.133H3.3V8.444H5.375V6.986Zm25.332,0V25.332H6.447v1.612h20.5V6.986ZM0,5.374H5.375V0H0ZM6.447,0V5.374H8.6V3.223h1.535V5.374h1.689V3.223h1.689V5.374H15.2V3.223h1.689V5.374h1.689V1.612h1.689V5.374h1.689V3.223h1.689V5.374h1.689V3.223h1.612V0Z" transform="translate(3866 1177)" fill="#59e6eb"/>
    <rect id="Rectangle_264" data-name="Rectangle 264" width="44" height="44" transform="translate(3857 1168)" fill="none"/>
  </g>
</svg>
