<svg xmlns="http://www.w3.org/2000/svg" width="44" height="44" viewBox="0 0 44 44">
  <g id="icon-cloud" transform="translate(4.886 3.5)">
    <path id="Path_604" data-name="Path 604" d="M0,0H36.228V36.228H0Z" transform="translate(-0.886 0.5)" fill="none"/>
    <path id="Path_605" data-name="Path 605" d="M29.209,13.117A11.3,11.3,0,0,0,8.091,10.1a9.053,9.053,0,0,0,.966,18.054H28.681a7.526,7.526,0,0,0,.528-15.035Zm-.528,12.016H9.057A6.038,6.038,0,1,1,15.1,19.1h3.019a9.047,9.047,0,0,0-6.642-8.725,8.287,8.287,0,0,1,14.944,4.951v.755h2.264a4.529,4.529,0,0,1,0,9.057Z" transform="translate(-0.886 2.5)" fill="#59e6eb"/>
    <rect id="Rectangle_263" data-name="Rectangle 263" width="44" height="44" transform="translate(-4.886 -3.5)" fill="none"/>
  </g>
</svg>
