<svg id="icon-locate" xmlns="http://www.w3.org/2000/svg" xmlns:xlink="http://www.w3.org/1999/xlink" width="56.417" height="40.183" viewBox="0 0 56.417 40.183">
  <defs>
    <clipPath id="clip-path">
      <rect id="Rectangle_259" data-name="Rectangle 259" width="56.417" height="40.183" fill="#4a5863"/>
    </clipPath>
  </defs>
  <g id="Group_296" data-name="Group 296" clip-path="url(#clip-path)">
    <path id="Path_632" data-name="Path 632" d="M55.441,18.111,44.677,10.5l-12.9-9.123C30.672.6,29.509-.467,28.047.222a19.955,19.955,0,0,0-2.71,1.8L1.108,18.819c-2.437,1.69-.318,3.223,1.241,4.324L11.765,29.8l10.651,7.531c1.66,1.174,3.647,3.3,5.789,2.766a1.021,1.021,0,0,0,.559-.194,1.113,1.113,0,0,0,.3-.2L51.648,24.038c1.6-1.107,6.945-3.7,3.793-5.927M37.009,31.471l-6.522-4.225,1.939-1.258c.6-.391.043-1.36-.565-.966l-2.684,1.742a.567.567,0,0,0,0,.966l6.839,4.43-8.382,5.812c-.691.325-2.382-1.365-2.855-1.7l-3.685-2.606,5.725-3.91c.592-.4.033-1.375-.565-.966l-6.133,4.188L18.6,31.9l-8.053-5.695,2.771-1.941c.587-.411.028-1.382-.565-.966L9.58,25.524,4.732,22.1l-2.2-1.552.043-.029,1.9-1.317L18.111,9.747,28.589,2.481c.686-.475,1.353.332,1.909.725l5.377,3.8L36,7.1l-8.077,5.624a.542.542,0,0,0-.087.061l-5.161,3.594-5.03-3.566c-.59-.419-1.148.553-.565.966L21.7,17.053,15.776,21.18c-.588.409-.029,1.381.565.966L22.876,17.6A.5.5,0,0,0,23,17.508l5.164-3.6,9.058,5.964c.173.44.367.873.573,1.294l-2.558,1.66c-.6.391-.043,1.361.565.966l2.514-1.632A27.43,27.43,0,0,0,40.6,25.609s4.111-5.119,4.111-9.044a4.111,4.111,0,1,0-8.222,0,7.281,7.281,0,0,0,.2,1.621l-7.535-4.962L36.97,7.782l13.208,9.34L53.9,19.757l-.779.54L37.009,31.471m1.369-14.857a2.22,2.22,0,1,1,2.22,2.22,2.22,2.22,0,0,1-2.22-2.22" transform="translate(0 0)" fill="#4a5863"/>
    <path id="Path_633" data-name="Path 633" d="M37.184,12.931a.56.56,0,0,0,0-1.119.56.56,0,0,0,0,1.119" transform="translate(-22.971 -7.405)" fill="#4a5863"/>
  </g>
</svg>
